<svg xmlns="http://www.w3.org/2000/svg" width="1000" height="1000" viewBox="0 0 1000 1000"><defs><clipPath id="b"><rect width="1000" height="1000" fill="none"/></clipPath></defs><g clip-path="url(#b)"><rect width="1000" height="1000" rx="96" ry="96" fill="#24232f"/><path d="m469.94,739.68c-72.2,0-130.95-58.38-130.95-130.13v-219.62c0-71.74,58.76-130.13,130.95-130.13s130.96,58.39,130.96,130.13v219.62c0,71.74-58.76,130.13-130.96,130.13Zm0-427.31c-43.08,0-78.05,34.82-78.05,77.56v219.62c0,42.81,35.03,77.56,78.05,77.56s78.06-34.82,78.06-77.56v-219.62c0-42.81-35.04-77.56-78.06-77.56Z" fill="#fff"/><path d="m178.1,511.55c-69.84,0-126.65-56.44-126.65-125.85s56.8-125.85,126.65-125.85,126.65,56.45,126.65,125.85-56.8,125.85-126.65,125.85Zm0-199.19c-40.67,0-73.81,32.87-73.81,73.34s33.08,73.34,73.81,73.34,73.81-32.87,73.81-73.34-33.08-73.34-73.81-73.34Z" fill="#fff"/><path d="m851.89,737.06h-120.67c-54.1,0-98.16-43.72-98.16-97.54v-7.82c0-53.76,44.06-97.54,98.16-97.54h120.67c54.11,0,98.16,43.72,98.16,97.54v7.82c0,53.76-44.05,97.54-98.16,97.54Zm-120.67-150.34c-24.98,0-45.26,20.2-45.26,44.98v7.82c0,24.83,20.33,44.98,45.26,44.98h120.67c24.99,0,45.26-20.21,45.26-44.98v-7.82c0-24.83-20.33-44.98-45.26-44.98h-120.67Z" fill="#fff"/><path d="m814.21,504.43h-41.36c-75.99,0-137.79-61.41-137.79-136.92v-95.37h52.84v95.37c0,46.52,38.08,84.41,84.95,84.41h41.36c46.81,0,84.95-37.84,84.95-84.41h52.84c0,75.51-61.8,136.92-137.79,136.92Z" fill="#fff"/><path d="m300.38,723.98h-52.84v-71.4c0-31.22-25.44-56.62-56.69-56.62h-30.9c-31.3,0-56.69,25.4-56.69,56.62h-52.84c0-60.16,49.17-109.13,109.59-109.13h30.9c60.42,0,109.59,48.97,109.59,109.13v71.4h-.11Z" fill="#fff"/></g></svg>